<?xml version="1.0" encoding="UTF-8" standalone="no"?>
<svg
   version="1.1"
   width="159.97249"
   height="160.39503"
   id="svg29"
   sodipodi:docname="Icon.svg"
   xmlns:inkscape="http://www.inkscape.org/namespaces/inkscape"
   xmlns:sodipodi="http://sodipodi.sourceforge.net/DTD/sodipodi-0.dtd"
   xmlns="http://www.w3.org/2000/svg"
   xmlns:svg="http://www.w3.org/2000/svg">
  <defs
     id="defs29" />
  <sodipodi:namedview
     id="namedview29"
     pagecolor="#ffffff"
     bordercolor="#000000"
     borderopacity="0.25"
     inkscape:showpageshadow="2"
     inkscape:pageopacity="0.0"
     inkscape:pagecheckerboard="0"
     inkscape:deskcolor="#d1d1d1">
    <inkscape:page
       x="0"
       y="0"
       width="159.97249"
       height="160.39503"
       id="page2"
       margin="0"
       bleed="0" />
  </sodipodi:namedview>
  <path
     d="m 107.2673,4.8996887 c 0.84176,0.3119532 1.68352,0.6239063 2.55078,0.9453125 20.99079,8.6283368 35.75856,24.5337738 44.63575,45.0800788 7.79018,18.90967 7.09876,41.564676 -0.5979,60.39893 -8.9907,20.6571 -25.27106,34.81513 -45.58863,43.57568 -19.061489,7.41518 -40.339107,7.48658 -59.156247,-0.76563 C 29.126,144.85195 13.528305,130.45558 5.4147635,109.72098 c -7.14328,-20.035161 -7.51638,-40.772964 0.66504,-60.571291 0.70273,-1.429966 1.434345,-2.845939 2.1875,-4.25 0.738633,-1.413457 0.738633,-1.413457 1.492188,-2.855469 C 13.764208,34.763754 18.410168,28.77678 24.267303,22.899689 24.93117,22.212619 25.595037,21.525548 26.279022,20.817658 47.263085,0.55304742 80.16879,-5.2666353 107.2673,4.8996887 Z"
     fill="#5e5e5e"
     id="path2" />
  <path
     d="m 91.267303,66.899689 c 3.443128,2.124482 4.716176,3.148526 6,7 -1.32,0 -2.64,0 -4,0 -0.66,-0.99 -1.32,-1.98 -2,-3 -2.20725,-0.363628 -2.20725,-0.363628 -4.625,-0.1875 -0.817265,0.02707 -1.634531,0.05414 -2.476562,0.08203 -0.939727,0.05221 -0.939727,0.05221 -1.898438,0.105469 -1.601574,4.804721 -1.936655,9.866508 0.125,14.5625 2.706094,2.074672 4.553464,1.852692 7.875,1.4375 3.124747,-1.634735 3.124747,-1.634735 3.6875,-4.125 0.103125,-0.61875 0.20625,-1.2375 0.3125,-1.875 -2.31,0 -4.62,0 -7,0 0,-0.99 0,-1.98 0,-3 3.3,0 6.6,0 10,0 0,3.96 0,7.92 0,12 -0.66,0 -1.32,0 -2,0 0,-0.66 0,-1.32 0,-2 -1.051875,0.7425 -1.051875,0.7425 -2.125,1.5 -3.410165,1.779217 -5.080536,2.119504 -8.875,1.5 -2.921527,-1.834447 -5.432661,-3.865322 -7,-7 -0.528021,-4.81278 -0.856409,-9.389232 1.875,-13.5625 3.476923,-3.988235 7.031294,-4.159597 12.125,-3.437499 z"
     fill="#f1f1f1"
     id="path4" />
  <path
     d="m 66.267303,66.899689 c 5.389253,2.03368 5.389253,2.03368 7.140625,4.804687 1.566032,4.000498 1.529146,7.984376 0.859375,12.195313 -1.682879,3.121772 -3.78274,5.39137 -7,7 -4.194915,0.403357 -6.525,0.241981 -10.3125,-1.6875 -3.918848,-3.372032 -4.510977,-5.694371 -5.0625,-10.75 0.447841,-4.254491 1.695773,-6.270879 4.375,-9.5625 3.741839,-2.494559 5.562431,-2.376065 10,-2 z m -8.4375,4.375 c -2.427586,4.078345 -2.314818,8.003617 -1.5625,12.625 1.420446,2.756093 1.420446,2.756093 4,4 3,0.666667 3,0.666667 6,0 2.302756,-1.867099 3.678239,-3.356477 5,-6 0.378092,-4.007773 0.344073,-6.353143 -1.5625,-9.9375 -2.363097,-2.359692 -2.363097,-2.359692 -5.9375,-2.625 -3.445929,0.34623 -3.445929,0.34623 -5.9375,1.9375 z"
     fill="#eeeeee"
     id="path5" />
  <path
     d="m 116.2673,66.899689 c 3.02508,1.736021 5.4179,3.835801 7,7 0.37169,5.575349 0.22543,9.21747 -3,14 -2.37303,2.163645 -3.96649,2.955628 -7.18359,3.09375 -3.80696,-0.250047 -6.19058,-0.640029 -9.31641,-2.90625 -2.89797,-4.226218 -3.39114,-9.140889 -2.5,-14.1875 3.5402,-6.142503 8.02686,-8.190222 15,-7 z m -10.5,5.0625 c -1.86986,3.661819 -2.00848,5.869646 -1.5,9.9375 1.1564,2.312796 2.1741,4.174098 4,6 5.0754,0.519878 5.0754,0.519878 9.375,-1.875 2.90294,-3.796142 3.0302,-6.343708 2.625,-11.125 -1.32161,-3.068739 -1.32161,-3.068739 -4,-5 -4.29343,-1.082155 -7.06865,-0.768365 -10.5,2.0625 z"
     fill="#eeeeee"
     id="path6" />
  <path
     d="m 36.267303,67.899689 c 0.99,0 1.98,0 3,0 0,6.27 0,12.54 0,19 3.63,0 7.26,0 11,0 0,0.99 0,1.98 0,3 -4.62,0 -9.24,0 -14,0 0,-7.26 0,-14.52 0,-22 z"
     fill="#f4f4f4"
     id="path7" />
</svg>
