<?xml version="1.0" encoding="UTF-8" standalone="no"?>
<svg
   version="1.1"
   width="299"
   height="234"
   id="svg46"
   sodipodi:docname="Image.svg"
   inkscape:version="1.4 (86a8ad7, 2024-10-11)"
   xmlns:inkscape="http://www.inkscape.org/namespaces/inkscape"
   xmlns:sodipodi="http://sodipodi.sourceforge.net/DTD/sodipodi-0.dtd"
   xmlns="http://www.w3.org/2000/svg"
   xmlns:svg="http://www.w3.org/2000/svg">
  <defs
     id="defs46" />
  <sodipodi:namedview
     id="namedview46"
     pagecolor="#ffffff"
     bordercolor="#000000"
     borderopacity="0.25"
     inkscape:showpageshadow="2"
     inkscape:pageopacity="0.0"
     inkscape:pagecheckerboard="0"
     inkscape:deskcolor="#d1d1d1"
     inkscape:zoom="3.3034188"
     inkscape:cx="149.54204"
     inkscape:cy="117"
     inkscape:window-width="1920"
     inkscape:window-height="991"
     inkscape:window-x="-9"
     inkscape:window-y="-9"
     inkscape:window-maximized="1"
     inkscape:current-layer="svg46" />
  <path
     d="M0 0 C98.67 0 197.34 0 299 0 C299 77.22 299 154.44 299 234 C200.33 234 101.66 234 0 234 C0 156.78 0 79.56 0 0 Z "
     fill="#323232"
     transform="translate(0,0)"
     id="path1" />
  <path
     d="M0 0 C0.86006391 -0.00445784 1.72012782 -0.00891569 2.60625428 -0.01350862 C3.55671799 -0.01332426 4.5071817 -0.01313989 5.48644733 -0.01294994 C6.99455832 -0.01846498 6.99455832 -0.01846498 8.53313619 -0.02409142 C11.9240165 -0.03516165 15.3148662 -0.03897776 18.70576191 -0.04278088 C21.12816688 -0.04904302 23.55057088 -0.05568959 25.97297382 -0.0626936 C33.25884923 -0.08194654 40.54472213 -0.09252601 47.83061525 -0.10142139 C51.26111359 -0.10580335 54.69161039 -0.11117045 58.12210751 -0.11641026 C69.52538419 -0.13342452 80.9286599 -0.14791836 92.33194733 -0.155159 C95.29200142 -0.15706892 98.2520555 -0.15898925 101.21210957 -0.16094494 C101.94782424 -0.16142868 102.68353891 -0.16191242 103.44154797 -0.16241082 C115.35778147 -0.17070985 127.27391455 -0.1960437 139.19010421 -0.22852562 C151.42258759 -0.26159795 163.65501994 -0.27960797 175.88754827 -0.28280324 C182.75629355 -0.28496833 189.62489245 -0.2937166 196.49359417 -0.31926441 C202.95566187 -0.34324405 209.41753758 -0.34679594 215.87964344 -0.33650303 C218.25201067 -0.33600648 220.62439067 -0.34236173 222.99671841 -0.35605907 C226.234986 -0.37371048 229.4723007 -0.3667043 232.71056843 -0.35352612 C233.64987853 -0.36449536 234.58918863 -0.37546461 235.55696267 -0.38676625 C236.86661664 -0.37389492 236.86661664 -0.37389492 238.20272827 -0.36076355 C239.32260605 -0.36222876 239.32260605 -0.36222876 240.46510762 -0.36372358 C242.91596699 0.13422108 242.91596699 0.13422108 249.91596699 4.13422108 C249.91596699 61.55422108 249.91596699 118.97422108 249.91596699 178.13422108 C245.92601665 176.80423763 244.36049617 174.18410549 241.91596699 170.94672108 C240.92913427 169.66535828 239.94215085 168.38411153 238.95502949 167.10297108 C238.45132832 166.44426014 237.94762714 165.7855492 237.4286623 165.10687733 C235.0730109 162.03494975 232.68335201 158.99007507 230.29096699 155.94672108 C229.83270527 155.36253407 229.37444355 154.77834705 228.90229511 154.17645741 C226.11316041 150.62886507 223.28345605 147.11908768 220.41596699 143.63422108 C214.65182133 136.6290405 209.08645159 129.46956517 203.49995136 122.32269764 C200.75058709 118.80708593 197.99130903 115.29966084 195.22260761 111.79926014 C193.93469949 110.15809172 192.6665047 108.50313385 191.40034199 106.84515858 C190.62174824 105.8474242 189.84315449 104.84968983 189.04096699 103.82172108 C188.36292011 102.93871326 187.68487324 102.05570545 186.98627949 101.14593983 C184.57700686 98.80485416 183.23781351 98.33182288 179.91596699 98.13422108 C176.86368978 98.76835115 176.86368978 98.76835115 176.02924824 100.80609608 C175.66186543 101.57437733 175.29448261 102.34265858 174.91596699 103.13422108 C173.34375641 105.25341202 171.75004414 107.32462193 170.10346699 109.38422108 C169.62353291 109.99048328 169.14359882 110.59674549 168.64912128 111.22137928 C164.34449652 116.64168546 159.95760972 121.99475085 155.56782246 127.34613514 C151.62126651 132.18569003 147.94068454 137.14105634 144.40424824 142.29047108 C143.91311543 142.89890858 143.42198261 143.50734608 142.91596699 144.13422108 C142.25596699 144.13422108 141.59596699 144.13422108 140.91596699 144.13422108 C139.12784621 142.04506986 137.45005499 139.94750094 135.79096699 137.75922108 C134.79396013 136.46595236 133.79656198 135.17298522 132.79877949 133.88031483 C132.30796894 133.24077869 131.81715839 132.60124256 131.3114748 131.94232655 C129.46031357 129.54384858 127.56677998 127.18096544 125.66596699 124.82172108 C122.70258851 121.12797458 119.78173025 117.40447458 116.88081074 113.66156483 C113.05839517 108.74485932 109.20105345 103.85548388 105.35102558 98.96039295 C103.50862338 96.61585935 101.66982833 94.26851335 99.83173847 91.92059803 C98.93152039 90.7738472 98.02869504 89.62913821 97.12324238 88.486516 C94.62353028 85.33083529 92.17234829 82.14813741 89.76752949 78.91937733 C88.71292097 77.53259851 87.65823528 76.14587838 86.60346699 74.75922108 C86.1240163 74.09801258 85.64456562 73.43680408 85.15058613 72.75555897 C82.88316853 69.80991779 81.50681057 68.27108738 77.83002949 67.41937733 C73.98440057 68.36274206 72.94911823 69.78826414 70.60346699 72.94672108 C69.43944355 74.46845936 69.43944355 74.46845936 68.25190449 76.02093983 C67.48104511 77.04832264 66.71018574 78.07570545 65.91596699 79.13422108 C64.52962884 80.85026886 63.13381079 82.55870284 61.72846699 84.25922108 C60.62051777 85.6127367 60.62051777 85.6127367 59.49018574 86.99359608 C58.63223125 88.04056813 57.77414681 89.08743371 56.91596699 90.13422108 C56.39341328 90.77166248 55.87085957 91.40910389 55.33247089 92.0658617 C48.83748449 99.98377143 42.31611187 107.87422911 35.67817402 115.6727953 C32.37303488 119.56616832 29.18067416 123.53778743 26.00971699 127.54047108 C23.52785352 130.61501836 20.97738106 133.625922 18.41596699 136.63422108 C15.25871045 140.34435878 12.13374347 144.06879801 9.10346699 147.88422108 C5.2882326 152.6871153 1.42387703 157.44848241 -2.45903301 162.19672108 C-3.07883038 162.96016834 -3.69862774 163.72361561 -4.33720684 164.51019764 C-5.21348736 165.57899158 -5.21348736 165.57899158 -6.10747051 166.66937733 C-6.63260235 167.31270008 -7.15773418 167.95602283 -7.69877911 168.61884022 C-9.08403301 170.13422108 -9.08403301 170.13422108 -11.08403301 171.13422108 C-11.20079927 149.70731319 -11.28898835 128.28045771 -11.34309387 106.85329628 C-11.36888301 96.90443064 -11.40404712 86.95576262 -11.46123028 77.00702381 C-11.51104349 68.3363816 -11.54331886 59.66588248 -11.55447549 50.99510115 C-11.56099779 46.4032868 -11.57634164 41.81188185 -11.6126833 37.22019863 C-11.64660999 32.89864574 -11.6570928 28.57767107 -11.64957142 24.25599766 C-11.65094747 22.66969696 -11.66090018 21.08337701 -11.68006039 19.49719143 C-11.70494883 17.33059466 -11.69895662 15.16617921 -11.6853056 12.99953175 C-11.68991456 11.78737397 -11.69452353 10.5752162 -11.69927216 9.32632637 C-10.90835232 5.22271979 -9.26095043 3.75369989 -6.08403301 1.13422108 C-3.80010338 -0.00774374 -2.53786387 0.0060865 0 0 Z "
     fill="#CACACA"
     transform="translate(49.08403301239014,37.86577892303467)"
     id="path2" />
  <path
     d="M0 0 C0.86677175 -0.00445784 1.73354351 -0.00891569 2.62658107 -0.01350862 C3.57938713 -0.01332426 4.53219318 -0.01313989 5.51387215 -0.01294994 C6.52562858 -0.01662663 7.53738501 -0.02030332 8.57980072 -0.02409142 C11.98606243 -0.03514619 15.39229365 -0.03897511 18.79857063 -0.04278088 C21.23422022 -0.04904404 23.66986886 -0.05569071 26.10551643 -0.0626936 C33.42507581 -0.08193148 40.74463267 -0.09252219 48.06420964 -0.10142139 C51.51040467 -0.10580458 54.95659816 -0.11117122 58.40279198 -0.11641026 C69.85672563 -0.13342 81.31065832 -0.14791533 92.76460266 -0.155159 C95.73653731 -0.15706891 98.70847195 -0.15898924 101.68040657 -0.16094494 C102.41907098 -0.16142868 103.15773538 -0.16191242 103.91878356 -0.16241082 C115.89126979 -0.17071555 127.86365625 -0.19606103 139.83609889 -0.22852562 C152.12510489 -0.26157732 164.41406013 -0.27960595 176.70311081 -0.28280324 C183.6041941 -0.28496984 190.50513179 -0.29374055 197.4061718 -0.31926441 C203.89533193 -0.34320951 210.38430088 -0.346809 216.87349892 -0.33650303 C219.25799493 -0.33600574 221.64250353 -0.34238257 224.02696037 -0.35605907 C227.27682219 -0.37365968 230.5257297 -0.36672973 233.7755909 -0.35352612 C234.72393551 -0.36449536 235.67228012 -0.37546461 236.64936244 -0.38676625 C240.89158051 -0.34502021 243.16149286 -0.24548862 246.83397293 2.03970528 C249.7909749 5.23594431 249.88880661 7.00108809 249.83421516 11.25922108 C249.82519173 12.1692992 249.81616829 13.07937733 249.80687141 14.01703358 C249.78946907 15.06504139 249.78946907 15.06504139 249.77171516 16.13422108 C248.60588213 16.13476584 247.4400491 16.13531061 246.23888779 16.13587189 C218.54078891 16.14992752 190.84282388 16.1897303 163.14481083 16.2610767 C159.73284842 16.26984305 156.32088549 16.27839293 152.9089222 16.28680897 C152.22968513 16.28848803 151.55044807 16.29016709 150.85062806 16.29189704 C139.86428101 16.31853933 128.87798614 16.32766013 117.8916101 16.3302625 C106.61170919 16.33332606 95.33195719 16.35568983 84.05211389 16.39474565 C77.719232 16.41606465 71.38660423 16.42868168 65.05368614 16.42037487 C59.08969483 16.41282811 53.12621814 16.428684 47.16232109 16.46228123 C44.9766841 16.4705068 42.79099586 16.4702736 40.60536385 16.46081829 C25.28252516 15.88586464 25.28252516 15.88586464 11.77171516 22.13422108 C6.6759996 27.4944507 5.65492202 32.21326342 5.61349678 39.38574696 C5.60370796 40.67019703 5.59391914 41.9546471 5.58383369 43.27801991 C5.57792987 44.69916211 5.5721194 46.12030471 5.5663929 47.54144764 C5.55681159 49.03955828 5.54680136 50.53766624 5.53639412 52.03577137 C5.50936638 56.10150333 5.48834528 60.16724687 5.46839213 64.23301888 C5.44651945 68.48247671 5.41913703 72.73189892 5.39233589 76.98132801 C5.34242636 85.02768308 5.29748107 93.07405793 5.25431353 101.12045169 C5.20492629 110.2812159 5.15001367 119.44194437 5.09463394 128.60267401 C4.9808406 147.44648984 4.87399578 166.29033941 4.77171516 185.13422108 C3.3330933 185.16980536 1.89421655 185.19518256 0.45530891 185.21625233 C-0.74654045 185.2390929 -0.74654045 185.2390929 -1.9726696 185.26239491 C-5.07108303 185.08632963 -6.84809547 184.08164874 -9.22828484 182.13422108 C-11.68533643 178.44864369 -11.48406816 176.63859635 -11.49571037 172.23935413 C-11.50024149 171.53386413 -11.5047726 170.82837413 -11.50944102 170.10150564 C-11.52212642 167.73164805 -11.52046201 165.36201906 -11.51881218 162.99213123 C-11.52479486 161.29538647 -11.5315998 159.59864444 -11.5391674 157.90190601 C-11.55686132 153.28824421 -11.56152421 148.67465656 -11.56279898 144.06096411 C-11.5646964 140.21150341 -11.57205215 136.36206006 -11.57914317 132.51260602 C-11.59543769 123.43139067 -11.60031116 114.35021499 -11.5988903 105.2689867 C-11.59768864 95.89688115 -11.61879291 86.5250058 -11.65037763 77.15295851 C-11.67651734 69.11041256 -11.68725857 61.0679419 -11.68597949 53.02535379 C-11.68546916 48.22017702 -11.69119097 43.41520475 -11.71233559 38.61007023 C-11.73167916 34.09069438 -11.73186917 29.57171891 -11.71730232 25.05232906 C-11.71520827 23.39348676 -11.71995055 21.73461966 -11.73202324 20.07581997 C-11.7474384 17.81109264 -11.73819396 15.54775231 -11.72276115 13.28305531 C-11.72385069 12.01579924 -11.72494022 10.74854317 -11.72606277 9.4428854 C-11.13742785 5.53030667 -10.02977971 3.8825888 -7.22828484 1.13422108 C-4.47046355 0.21494732 -2.84172683 0.00678122 0 0 Z "
     fill="#CBCBCB"
     transform="translate(22.22828483581543,10.865778923034668)"
     id="path3" />
  <path
     d="M0 0 C1.16893897 -0.0034177 2.33787794 -0.0068354 3.54223931 -0.01035666 C6.77837156 -0.01579918 10.01386036 -0.00332573 13.24991655 0.01675558 C16.74268578 0.03404981 20.2354257 0.02818249 23.72822571 0.02514648 C29.77688558 0.02305036 35.82537269 0.03558685 41.87398911 0.05809784 C50.61921356 0.09062352 59.36435459 0.10102543 68.10963298 0.10604981 C82.29865073 0.11480157 96.48757642 0.14141393 110.67654419 0.17926025 C124.45876607 0.21598341 138.24096294 0.24429368 152.02322388 0.2612915 C152.87294128 0.2623424 153.72265867 0.26339329 154.59812509 0.26447603 C158.86096143 0.26969623 163.12379795 0.27475105 167.38663459 0.27972364 C202.7440816 0.321182 238.10141152 0.39272902 273.45877075 0.48101807 C273.45877075 14.34101807 273.45877075 28.20101807 273.45877075 42.48101807 C272.13877075 41.82101807 270.81877075 41.16101807 269.45877075 40.48101807 C266.70171973 39.56200106 265.0881702 39.35579489 262.2488966 39.35517693 C261.38622494 39.35256918 260.52355328 39.34996143 259.63474005 39.34727466 C258.21239058 39.35062074 258.21239058 39.35062074 256.76130676 39.35403442 C255.75433945 39.35247443 254.74737214 39.35091444 253.70989066 39.34930718 C250.31977286 39.34530356 246.92969947 39.34848442 243.5395813 39.35162354 C241.11540704 39.35026919 238.69123299 39.34848907 236.26705933 39.34631348 C230.35586645 39.34221769 224.4446852 39.34283019 218.53349265 39.34572612 C213.72859886 39.34798273 208.92370863 39.34829155 204.11881447 39.3472023 C203.43543905 39.34704907 202.75206363 39.34689583 202.04797987 39.34673796 C200.65975985 39.34641824 199.27153984 39.34609402 197.88331983 39.34576537 C184.85678964 39.34291187 171.83026648 39.34619523 158.80373744 39.35156573 C147.627954 39.35603065 136.45218095 39.35526016 125.27639771 39.35064697 C112.30174028 39.34529375 99.32708902 39.34318971 86.35243064 39.34625924 C84.96834521 39.34657779 83.58425977 39.34689216 82.20017433 39.3472023 C81.51916833 39.34735658 80.83816233 39.34751085 80.13651979 39.3476698 C75.33929443 39.34853293 70.542073 39.3470764 65.74484825 39.34472275 C59.28445767 39.34162285 52.82408208 39.34383466 46.36369324 39.349617 C43.99091436 39.35094042 41.61813383 39.35055756 39.24535561 39.34835434 C36.00927658 39.34562638 32.77326066 39.3490443 29.53718567 39.35403442 C28.59564485 39.3518037 27.65410403 39.34957298 26.68403167 39.34727466 C23.01977967 39.35825168 19.65162417 39.44737596 16.03199482 40.07879829 C12.44370344 40.63968289 10.54444892 39.2342443 7.45877075 37.48101807 C6.79877075 37.48101807 6.13877075 37.48101807 5.45877075 37.48101807 C6.85074404 34.09845085 8.26132035 32.64413125 11.39627075 30.79351807 C12.08591919 30.37715088 12.77556763 29.96078369 13.4861145 29.53179932 C18.06267863 27.09398595 22.43200819 27.34403958 27.47529602 27.36076355 C28.40890923 27.35990912 29.34252245 27.3590547 30.30442697 27.35817438 C33.44598205 27.35652174 36.58748423 27.36203747 39.72903442 27.36749268 C41.97575377 27.36777462 44.22247321 27.36761667 46.4691925 27.36705017 C52.58039823 27.36676248 58.69158445 27.37265469 64.80278563 27.37962413 C71.18496461 27.38586233 77.56714401 27.38646184 83.94932556 27.38764954 C94.6652873 27.39040759 105.38124049 27.39665989 116.09719849 27.40557861 C127.13528406 27.4147559 138.17336768 27.42183519 149.2114563 27.42608643 C149.89170312 27.42634915 150.57194994 27.42661187 151.2728103 27.42688256 C154.68536663 27.42818758 158.09792298 27.42945129 161.51047933 27.43069446 C189.82658141 27.44106326 218.1426757 27.45875252 246.45877075 27.48101807 C246.35315998 22.53651371 246.19195659 18.64822497 243.52018738 14.39485931 C239.14385651 11.65900087 235.54596325 11.79254117 230.47610474 11.85955811 C229.46263946 11.85316928 228.44917418 11.84678046 227.40499783 11.84019804 C224.00455324 11.82492151 220.60526877 11.84542805 217.2048645 11.86578369 C214.76891696 11.86228332 212.33297171 11.8566257 209.89703369 11.84896851 C203.96494429 11.83618152 198.03316623 11.84667406 192.10112691 11.86808175 C185.19300993 11.89209655 178.28497132 11.89037708 171.37682188 11.88777584 C159.05087698 11.88408573 146.72509333 11.90491046 134.39920044 11.93902588 C122.43887252 11.97211721 110.47871384 11.98628417 98.51834106 11.9800415 C85.49421174 11.97327705 72.4701533 11.97573927 59.44603443 11.99540091 C58.75728027 11.99644039 58.06852611 11.99747988 57.35890061 11.99855086 C55.97557798 12.00064176 54.59225538 12.00275273 53.20893282 12.00488403 C48.39367709 12.01177888 43.57844322 12.01244907 38.76318359 12.01100159 C32.28218546 12.00941133 25.80134752 12.02430997 19.32040024 12.05022812 C16.9391465 12.05740152 14.55787121 12.05946793 12.17660904 12.05611038 C8.93133027 12.05240684 5.68664694 12.06710461 2.44143677 12.08660889 C1.02096621 12.078617 1.02096621 12.078617 -0.42820072 12.07046366 C-5.23186794 12.12042621 -8.72198221 12.21482033 -12.54122925 15.48101807 C-13.90103806 18.55663053 -13.90103806 18.55663053 -14.54122925 21.48101807 C-15.20122925 20.82101807 -15.86122925 20.16101807 -16.54122925 19.48101807 C-16.16622925 17.35601807 -16.16622925 17.35601807 -15.54122925 15.48101807 C-16.53122925 15.48101807 -17.52122925 15.48101807 -18.54122925 15.48101807 C-18.54122925 14.82101807 -18.54122925 14.16101807 -18.54122925 13.48101807 C-19.20122925 13.48101807 -19.86122925 13.48101807 -20.54122925 13.48101807 C-20.87122925 13.15101807 -21.20122925 12.82101807 -21.54122925 12.48101807 C-22.20122925 13.47101807 -22.86122925 14.46101807 -23.54122925 15.48101807 C-23.27594258 11.67857579 -22.82547268 9.82211019 -20.35372925 6.85601807 C-19.42560425 6.07226807 -18.49747925 5.28851807 -17.54122925 4.48101807 C-16.73125929 3.78195469 -15.92128933 3.08289131 -15.08677483 2.3626442 C-10.48687802 -0.63087173 -5.30300405 -0.05661059 0 0 Z "
     fill="#323232"
     transform="translate(25.541229248046875,-0.48101806640625)"
     id="path4" />
  <path
     d="M0 0 C0.66 0 1.32 0 2 0 C3.54348052 1.96778392 4.96653608 3.93801759 6.375 6 C7.27953516 7.29546987 8.18585646 8.58969403 9.09375 9.8828125 C9.56941406 10.56118164 10.04507813 11.23955078 10.53515625 11.93847656 C12.92111475 15.29631549 15.39487132 18.58640695 17.875 21.875 C18.62680542 22.87358032 18.62680542 22.87358032 19.39379883 23.89233398 C20.41646314 25.2497477 21.43965804 26.60676183 22.46337891 27.96337891 C25.00080645 31.32645812 27.53277087 34.69362721 30.0625 38.0625 C30.5577417 38.7220166 31.0529834 39.3815332 31.56323242 40.06103516 C35.42917618 45.21858003 39.24846028 50.40916722 43.04907227 55.61499023 C46.685515 60.59079077 50.39001113 65.51188961 54.125 70.4140625 C55.88941208 72.84748083 57.45354226 75.42257043 59 78 C19.4 78 -20.2 78 -61 78 C-61 73.60848856 -60.87363202 73.3888699 -58.0625 70.4375 C-55.23381902 67.36039195 -52.51314626 64.24282304 -49.875 61 C-49.11574219 60.06800781 -48.35648438 59.13601562 -47.57421875 58.17578125 C-45.69791878 55.86381935 -43.82709296 53.54747813 -41.95703125 51.23046875 C-36.13018506 44.02063792 -30.23545919 36.88958951 -24.17529297 29.87451172 C-20.66855375 25.80650714 -17.27524368 21.6638806 -13.9453125 17.44921875 C-11.00243074 13.74402425 -7.98856587 10.09762156 -4.98046875 6.4453125 C-3.72530031 4.89553844 -2.51282408 3.30934965 -1.36328125 1.6796875 C-0.91339844 1.12539062 -0.46351562 0.57109375 0 0 Z "
     fill="#979797"
     transform="translate(105,145)"
     id="path5" />
  <path
     d="M0 0 C0.66 0 1.32 0 2 0 C3.6640625 1.8359375 3.6640625 1.8359375 5.625 4.375 C6.70007813 5.75365234 6.70007813 5.75365234 7.796875 7.16015625 C8.52390625 8.09730469 9.2509375 9.03445312 10 10 C11.28910554 11.60622551 12.58072351 13.21043825 13.875 14.8125 C16.86454473 18.5450772 19.78605619 22.323593 22.6875 26.125 C27.14039263 31.95460702 31.74839224 37.64917071 36.38671875 43.33178711 C39.71995968 47.41767938 43.02377281 51.51961305 46.234375 55.703125 C47.69135404 57.59848711 49.16229766 59.48071078 50.640625 61.359375 C51.57302688 62.55199718 52.50531872 63.74470539 53.4375 64.9375 C53.88762451 65.50621826 54.33774902 66.07493652 54.80151367 66.66088867 C58 70.77376068 58 70.77376068 58 73 C49.71564139 73.30276363 41.43363363 73.53293841 33.14509106 73.67355824 C29.29500133 73.74109453 25.44872446 73.83246406 21.60083008 73.98071289 C-5.34657286 74.99193979 -5.34657286 74.99193979 -11.33764648 70.29443359 C-14.30136522 67.21199157 -16.12228065 63.82001262 -18 60 C-19.0030625 58.65877655 -20.03653136 57.33872065 -21.12109375 56.0625 C-21.88550781 55.051875 -22.64992187 54.04125 -23.4375 53 C-26.24824999 49.29555191 -29.0796231 45.61887251 -32 42 C-30.63865868 39.06888232 -29.07281512 36.65141069 -27.0625 34.125 C-26.44246094 33.34125 -25.82242188 32.5575 -25.18359375 31.75 C-24.10271484 30.38875 -24.10271484 30.38875 -23 29 C-22.13582105 27.89653578 -21.27259165 26.79232747 -20.41015625 25.6875 C-15.30997441 19.15970122 -10.15366357 12.6895416 -4.875 6.3046875 C-3.65750562 4.80818399 -2.48669811 3.27199973 -1.375 1.6953125 C-0.92125 1.13585937 -0.4675 0.57640625 0 0 Z "
     fill="#969696"
     transform="translate(230,150)"
     id="path6" />
  <path
     d="M0 0 C8.23955225 4.20743094 13.72287373 10.27387566 17.16015625 18.890625 C19.38834651 27.03364758 19.00986737 36.04960887 15.40234375 43.71875 C10.03002098 52.70297339 3.04817128 58.20380359 -7.10546875 60.84375 C-8.05421875 60.905625 -9.00296875 60.9675 -9.98046875 61.03125 C-11.21796875 61.11375 -12.45546875 61.19625 -13.73046875 61.28125 C-23.10854886 61.08475689 -30.26899977 57.43704812 -36.98046875 51.03125 C-43.46693699 44.01098263 -45.67503659 35.58273971 -45.38671875 26.15234375 C-44.26115057 17.50494972 -40.52381899 10.49936357 -34.10546875 4.65234375 C-24.38844488 -2.76045938 -11.46090859 -4.59286875 0 0 Z "
     fill="#323232"
     transform="translate(211.98046875,59.96875)"
     id="path7" />
  <path
     d="M0 0 C3.52122903 1.4549254 5.25878074 3.24471613 7.5625 6.25 C8.60664063 7.59578125 8.60664063 7.59578125 9.671875 8.96875 C10.44015625 9.9690625 11.2084375 10.969375 12 12 C13.30661199 13.66810125 14.61826353 15.33215882 15.93017578 16.99609375 C18.77259967 20.60258849 21.60308194 24.2184784 24.43652344 27.83203125 C30.88347647 36.05244645 37.36079662 44.24587605 43.91796875 52.37890625 C47.56768726 56.91737857 51.15391991 61.49538215 54.6875 66.125 C58.55025933 71.18461743 62.53049146 76.13696183 66.5625 81.0625 C70.55153455 85.94593165 74.50206194 90.8504252 78.3125 95.875 C79.03050781 96.82117188 79.74851562 97.76734375 80.48828125 98.7421875 C82 101 82 101 82 103 C55.56712968 105.35554781 55.56712968 105.35554781 48.64550781 101.78564453 C45.07333636 98.56101937 43.10168412 94.47407315 41.09570312 90.15966797 C39.21610906 86.45492441 36.61994295 83.3183433 34.0625 80.0625 C33.05169157 78.72361072 32.04388216 77.3824521 31.0390625 76.0390625 C30.02614465 74.69263086 29.01312369 73.34627677 28 72 C20.7819603 62.40839811 13.61860712 52.78119105 6.53173828 43.09228516 C3.54743049 39.0158558 0.55582191 34.94481291 -2.4375 30.875 C-3.02901855 30.06893311 -3.62053711 29.26286621 -4.22998047 28.43237305 C-7.08059765 24.55842597 -9.95533832 20.72540914 -13 17 C-11.2703384 12.79046213 -8.31793255 9.64856424 -5.375 6.25 C-4.859375 5.64800781 -4.34375 5.04601562 -3.8125 4.42578125 C-2.54530865 2.94739134 -1.27314225 1.47326829 0 0 Z "
     fill="#979797"
     transform="translate(126,120)"
     id="path10" />
  <path
     d="M0 0 C5.28009192 2.77649777 9.91611634 7.69756778 11.80078125 13.3515625 C12.63491939 20.97495161 12.62216015 27.2677184 7.765625 33.47265625 C3.10414594 37.93025352 -2.35411859 40.55647493 -8.82421875 40.9140625 C-15.34180213 40.47725797 -20.20251435 37.75050605 -24.57421875 32.9765625 C-28.51549474 27.92144765 -29.6889267 22.99134065 -29.5078125 16.65234375 C-28.60952368 9.95497523 -24.97687342 5.64421119 -19.8828125 1.48046875 C-14.5766204 -2.07751157 -5.94242282 -1.75211756 0 0 Z "
     fill="#CACACA"
     transform="translate(207.19921875,69.6484375)"
     id="path11" />
</svg>
