<?xml version="1.0" encoding="UTF-8" standalone="no"?>
<svg
   version="1.1"
   width="82.708199"
   height="36.398441"
   id="svg92"
   sodipodi:docname="Logo1.svg"
   xmlns:inkscape="http://www.inkscape.org/namespaces/inkscape"
   xmlns:sodipodi="http://sodipodi.sourceforge.net/DTD/sodipodi-0.dtd"
   xmlns="http://www.w3.org/2000/svg"
   xmlns:svg="http://www.w3.org/2000/svg">
  <defs
     id="defs92" />
  <sodipodi:namedview
     id="namedview92"
     pagecolor="#ffffff"
     bordercolor="#000000"
     borderopacity="0.25"
     inkscape:showpageshadow="2"
     inkscape:pageopacity="0.0"
     inkscape:pagecheckerboard="0"
     inkscape:deskcolor="#d1d1d1">
    <inkscape:page
       x="0"
       y="0"
       width="82.708199"
       height="36.398441"
       id="page1"
       margin="0"
       bleed="0" />
  </sodipodi:namedview>
  <path
     d="m 54.431671,6.9375 c 1.281328,0.00902 2.562656,0.018047 3.882813,0.027344 0.987422,0.011602 1.974843,0.023203 2.992187,0.035156 0,1.32 0,2.64 0,4 -0.66,0 -1.32,0 -2,0 0.33,1.98 0.66,3.96 1,6 -2.284317,2.358005 -4.008102,3.887209 -7.335937,4.265625 C 50.737469,21.251535 48.532847,21.174605 46.306671,21 c 0,0.66 0,1.32 0,2 0.675469,0.121172 1.350938,0.242344 2.046875,0.367187 0.892031,0.167579 1.784063,0.335157 2.703125,0.507813 1.322578,0.243633 1.322578,0.243633 2.671875,0.492187 2.447603,0.600776 4.384124,1.412784 6.578125,2.632813 0.363286,5.449294 0.363286,5.449294 -1.105469,7.675781 C 56.416858,36.621952 54.16629,36.3977 50.806671,36.375 49.08964,36.3866 49.08964,36.3866 47.337921,36.39844 44.306671,36 44.306671,36 42.644317,34.771729 40.021133,31.29729 40.838192,26.75027 40.869171,22.5625 c -0.01998,-0.954551 -0.03996,-1.909102 -0.06055,-2.892578 0.0049,-6.996523 0.0049,-6.996523 2.400391,-10.267578 C 47.13398,6.7783912 49.697522,6.8944623 54.431671,6.9375 Z"
     fill="#6d6d6d"
     id="path3" />
  <path
     d="m 30.146511,6.429687 c 2.872393,0.7583532 4.671128,2.134355 6.34375,4.59375 1.648535,3.991189 1.645016,7.779181 0.816406,11.976562 -1.309765,3.040098 -2.265711,3.835356 -5,6 -2.831072,0.7306 -5.162953,0.687769 -8,0 -2.810034,-1.793639 -4.509404,-3.018809 -6,-6 C 17.701241,18.191184 17.37845,13.49139 20.244167,9.375 23.801925,6.615922 25.730907,6.0905922 30.146511,6.429687 Z"
     fill="#686868"
     id="path6" />
  <path
     d="M 74.373081,6.535156 C 77.430812,7.2702469 79.179459,8.7438615 81.306675,11 c 1.52705,4.581151 2.101043,9.357496 0.199219,13.921875 -1.69747,2.449956 -3.475142,3.885649 -6.359375,4.652343 C 70.730649,29.905962 68.802552,29.384558 65.244175,26.625 62.835219,23.082912 62.58882,19.617632 62.830112,15.414062 64.083059,9.06717 67.917855,6.0348455 74.373081,6.535156 Z"
     fill="#6a6a6a"
     id="path7" />
  <path
     d="M 0.30667069,0 C 1.9566706,0 3.6066706,0 5.3066706,0 c 0.33,7.92 0.66,15.84 1,24 3.3,0.33 6.6000004,0.66 10.0000004,1 0,1.32 0,2.64 0,4 -2.103045,0.108002 -4.207669,0.18559 -6.3125004,0.25 C 8.2365339,29.31961 8.2365339,29.31961 6.4433893,29.390625 3.3066706,29 3.3066706,29 1.6289362,27.341797 -0.02850894,24.406381 -0.03771147,22.499634 0.01370194,19.140625 0.02336994,18.025586 0.03303784,16.910547 0.04299884,15.761719 0.06813554,14.602852 0.09327224,13.443984 0.11917074,12.25 0.13270594,11.075664 0.14624104,9.901328 0.16018634,8.6914063 0.19552289,5.793807 0.2448609,2.8971357 0.30667069,0 Z"
     fill="#646464"
     id="path13" />
  <path
     d="m 25.306671,11 c 2.9375,0.375 2.9375,0.375 6,1 1.592309,3.184619 1.389051,6.533915 1,10 -1.1875,2.0625 -1.1875,2.0625 -3,3 -2.625,-0.1875 -2.625,-0.1875 -5,-1 -1.563535,-3.12707 -1.399585,-6.579824 -1,-10 0.66,-0.99 1.32,-1.98 2,-3 z"
     fill="#f0eeef"
     id="path24" />
  <path
     d="m 73.931671,11.25 c 2.375,0.75 2.375,0.75 3.375,1.75 0.203125,2.214844 0.203125,2.214844 0.25,4.9375 0.03867,1.343848 0.03867,1.343848 0.07813,2.714844 -0.108286,0.774726 -0.216567,1.549453 -0.32813,2.347656 -3,2 -3,2 -5.0625,1.8125 C 70.306671,24 70.306671,24 68.306671,21 c -0.5433,-6.084967 -0.5433,-6.084967 1.1875,-9 1.8125,-1 1.8125,-1 4.4375,-0.75 z"
     fill="#efefef"
     id="path25" />
  <path
     d="m 47.306671,11 c 5.75,-0.125 5.75,-0.125 8,1 -0.875,4.875 -0.875,4.875 -2,6 -2.4375,0.1875 -2.4375,0.1875 -5,0 -0.66,-0.66 -1.32,-1.32 -2,-2 0.375,-2.625 0.375,-2.625 1,-5 z"
     fill="#e9e9e9"
     id="path44" />
  <path
     d="m 46.306671,27 c 4.455,0.99 4.455,0.99 9,2 -0.33,1.32 -0.66,2.64 -1,4 -2.332948,0.04242 -4.667026,0.04093 -7,0 -1,-1 -1,-1 -1.0625,-3.5625 0.02062,-0.804375 0.04125,-1.60875 0.0625,-2.4375 z"
     fill="#ececec"
     id="path48" />
</svg>
