<?xml version="1.0" encoding="UTF-8" standalone="no"?>
<svg
   version="1.1"
   width="602.29797"
   height="170.14543"
   id="svg40"
   sodipodi:docname="Logo.svg"
   inkscape:version="1.4 (86a8ad7, 2024-10-11)"
   xmlns:inkscape="http://www.inkscape.org/namespaces/inkscape"
   xmlns:sodipodi="http://sodipodi.sourceforge.net/DTD/sodipodi-0.dtd"
   xmlns="http://www.w3.org/2000/svg"
   xmlns:svg="http://www.w3.org/2000/svg">
  <defs
     id="defs40" />
  <sodipodi:namedview
     id="namedview40"
     pagecolor="#ffffff"
     bordercolor="#000000"
     borderopacity="0.25"
     inkscape:showpageshadow="2"
     inkscape:pageopacity="0.0"
     inkscape:pagecheckerboard="0"
     inkscape:deskcolor="#d1d1d1"
     inkscape:zoom="2.2538265"
     inkscape:cx="427.71704"
     inkscape:cy="145.75212"
     inkscape:window-width="1920"
     inkscape:window-height="991"
     inkscape:window-x="-9"
     inkscape:window-y="-9"
     inkscape:window-maximized="1"
     inkscape:current-layer="svg40">
    <inkscape:page
       x="0"
       y="0"
       width="602.29797"
       height="170.14543"
       id="page2"
       margin="0"
       bleed="0" />
  </sodipodi:namedview>
  <path
     d="m 407.22009,0 c 0.99,0.66 1.98,1.32 3,2 -0.45822,3.4694155 -0.89131,6.6739505 -2,10 0.74444,0.402188 0.74444,0.402188 1.50391,0.8125 10.83546,6.250436 15.2284,14.210478 18.49609,26.1875 1.457,8.368616 1.4861,16.640689 0,25 1.01063,-0.20625 2.02125,-0.4125 3.0625,-0.625 10.9323,-1.298694 22.15438,0.864305 30.9375,7.625 6.29352,6.154687 10.03132,13.629599 10.34058,22.51001 -4.7e-4,1.560546 -0.0168,3.121154 -0.0476,4.681396 -0.004,0.830715 -0.008,1.661431 -0.0129,2.517314 -0.0166,2.61828 -0.0542,5.23574 -0.0926,7.85378 -0.0151,1.7897 -0.0288,3.57942 -0.041,5.36914 -0.0328,4.35643 -0.0845,8.71226 -0.14648,13.06836 2.64,-0.33 5.28,-0.66 8,-1 0,-30.36 0,-60.72 0,-92 12.61116,2.10186 18.84805,4.991987 26,15 3.52819,6.88837 3.26467,14.807164 3.5625,22.375 0.0432,1.022227 0.0864,2.044453 0.13086,3.097656 0.10552,2.508997 0.20763,5.018083 0.30664,7.527344 0.35796,-0.706326 0.71591,-1.412651 1.08472,-2.140381 3.59868,-6.929755 7.73142,-10.774318 14.91528,-13.859619 8.38543,-2.096358 15.99448,-1.150188 24,2 0.99,0.66 1.98,1.32 3,2 2.16112,0.199051 4.33063,0.312607 6.5,0.375 12.21633,0.779231 20.2571,4.466221 28.5,13.625 10.77962,13.658384 14.69637,30.86156 14,48 -0.66,0.33 -1.32,0.66 -2,1 -0.23783,-1.92199 -0.23783,-1.92199 -0.48047,-3.88281 C 597.80353,114.40177 594.79619,101.4388 586.22009,89 585.63808,88.124082 585.63808,88.124082 585.04431,87.230469 580.29972,80.790221 571.8446,76.881071 564.07556,75.664062 562.12752,75.411602 560.174,75.202128 558.22009,75 c 0.27715,0.603281 0.5543,1.206563 0.83984,1.828125 0.36223,0.799219 0.72446,1.598438 1.09766,2.421875 0.35965,0.788906 0.7193,1.577812 1.08984,2.390625 1.74792,4.239925 2.09567,7.821379 2.08619,12.413086 -8e-5,1.220964 -1.6e-4,2.441927 -2.3e-4,3.69989 -0.008,1.970483 -0.008,1.970483 -0.0156,3.980779 -0.002,1.36191 -0.003,2.72383 -0.004,4.08575 -0.004,3.57729 -0.0136,7.15454 -0.0247,10.73181 -0.0102,3.65325 -0.0148,7.30651 -0.0198,10.95978 -0.0107,7.16278 -0.0278,14.32552 -0.0488,21.48828 -1.6056,-0.13798 -3.21064,-0.28235 -4.81543,-0.42944 -0.89386,-0.0797 -1.78773,-0.15943 -2.70868,-0.24157 -6.46311,-0.85881 -11.86088,-5.14593 -15.91339,-10.07899 -6.83755,-10.68049 -5.92495,-22.17012 -5.75,-34.375 0.0151,-1.83332 0.0288,-3.66666 0.041,-5.5 0.0328,-4.458633 0.0844,-8.916682 0.14648,-13.375 -6.40838,5.548446 -6.40838,5.548446 -12.5625,11.375 -0.68191,0.667734 -1.36383,1.335469 -2.06641,2.023437 -0.78284,0.858516 -1.5653,1.717033 -2.37147,2.601563 -0.89223,0.78637 -0.89223,0.78637 -1.80249,1.58862 -7.51672,7.63548 -6.20054,17.46928 -6.13501,27.47388 -0.0131,1.83792 -0.0294,3.67581 -0.0488,5.51367 -0.0406,4.4752 -0.0388,8.94854 -0.0137,13.42383 -9.39385,0.11016 -15.37373,-2.75819 -22.26953,-9.11719 -2.51909,-2.74086 -4.0962,-5.54618 -5.73047,-8.88281 -2.97,0.33 -5.94,0.66 -9,1 0,5.61 0,11.22 0,17 -8.64515,-0.54032 -14.71018,-2.23646 -20.75,-8.6875 -3.34435,-4.06373 -5.42056,-8.40369 -7.25,-13.3125 -0.30293,0.66387 -0.60586,1.32773 -0.91797,2.01172 -2.45372,5.1717 -4.65124,9.22211 -9.08203,12.98828 -0.72187,0.70125 -1.44375,1.4025 -2.1875,2.125 -7.97065,5.31377 -17.89506,6.24705 -27.17578,4.40625 -6.01852,-1.90417 -8.91776,-5.42075 -11.94922,-10.90625 -1.7377,-6.63486 -0.94929,-11.64504 2.3125,-17.625 4.82965,-8.0856 14.16987,-12.2314 22.91016,-14.88281 2.01347,-0.45311 4.05043,-0.80073 6.08984,-1.11719 -0.31582,-0.85723 -0.63164,-1.71445 -0.95703,-2.59766 C 420.07448,91.000637 421.24731,79.685615 422.22009,69 c -9.04035,3.14218 -13.92387,6.915792 -19,15 -1.485,-0.495 -1.485,-0.495 -3,-1 3.66111,-7.640569 9.39842,-13.895653 17.4375,-17 3.5625,-1 3.5625,-1 5.5625,-1 1.07389,-22.873202 1.07389,-22.873202 -8.04687,-43.316406 -2.96479,-2.555649 -6.41584,-4.052745 -9.95313,-5.683594 -9.01174,16.326885 -18.01935,32.655981 -27,49 4.95,0 9.9,0 15,0 -6.20276,12.785284 -13.01799,25.179125 -19.96275,37.57402 -3.41234,6.09035 -6.80149,12.19351 -10.18907,18.29765 -1.53448,2.76461 -3.07029,5.52847 -4.60599,8.29239 -0.50676,0.91218 -1.01353,1.82435 -1.53564,2.76416 -2.23552,4.02393 -4.47103,8.04785 -6.70655,12.07178 13.86,0.33 27.72,0.66 42,1 0,0.99 0,1.98 0,3 -24.42,0 -48.84,0 -74,0 1.40855,-3.52137 2.79286,-6.62851 4.58203,-9.92969 0.51289,-0.94786 1.02578,-1.89573 1.5542,-2.87231 0.55317,-1.01409 1.10634,-2.02818 1.67627,-3.073 0.57895,-1.06501 1.1579,-2.13001 1.7544,-3.22729 4.38516,-8.03987 8.86167,-16.02524 13.38623,-23.98731 C 347.94467,92.989649 354.5726,80.990344 361.22009,69 c -19.8,-0.495 -19.8,-0.495 -40,-1 0,-0.99 0,-1.98 0,-3 25.245,-0.495 25.245,-0.495 51,-1 8.25,-16.5 16.5,-33 25,-50 -9.16222,-3.054073 -19.01991,-0.413483 -28.14428,1.664795 -0.82895,0.184094 -1.6579,0.368188 -2.51197,0.557861 -0.74056,0.172815 -1.48113,0.34563 -2.24414,0.523682 -2.30437,0.2784 -3.90196,-0.04886 -6.09961,-0.746338 13.11688,-5.273522 25.87816,-7.9611729 40,-7 0.99,0.495 0.99,0.495 2,1 0.22688,-0.9075 0.45375,-1.815 0.6875,-2.75 1.49378,-3.6988832 3.06651,-5.0290566 6.3125,-7.25 z m -1,4 c -1.62831,1.8096158 -1.62831,1.8096158 -3,4 0.33,0.99 0.66,1.98 1,3 1.60907,-2.3761286 1.60907,-2.3761286 3,-5 -0.33,-0.66 -0.66,-1.32 -1,-2 z m -6,10 c 0.33,0.99 0.66,1.98 1,3 0.33,-0.99 0.66,-1.98 1,-3 -0.66,0 -1.32,0 -2,0 z m -28,52 c -5.4868,10.307093 -10.8996,20.651812 -16.1875,31.0625 -0.7402,1.435935 -0.7402,1.435935 -1.49536,2.900879 -0.67325,1.334901 -0.67325,1.334901 -1.36011,2.696781 -0.40243,0.79027 -0.80485,1.58055 -1.21948,2.39477 -0.24339,0.64187 -0.48678,1.28375 -0.73755,1.94507 0.33,0.66 0.66,1.32 1,2 3.75694,-6.62916 7.50721,-13.262048 11.25049,-19.898926 1.11452,-1.975523 2.22998,-3.950516 3.34668,-5.924804 1.40945,-2.493848 2.81328,-4.990762 4.21533,-7.48877 0.42588,-0.751362 0.85175,-1.502725 1.29053,-2.276855 2.14567,-3.490879 2.14567,-3.490879 2.89697,-7.410645 -0.99,0 -1.98,0 -3,0 z m 55,2 c -2.31804,17.865179 -2.31804,17.865179 2,35 4.95,-0.66 9.9,-1.32 15,-2 0.81184,-15.387238 0.81184,-15.387238 -5.375,-29 -4.0304,-3.070785 -6.54153,-4 -11.625,-4 z m 89,10 c -5.2125,7.199587 -7.45421,15.142983 -7,24 3.50311,-2.734134 6.50194,-5.480169 9.375,-8.875 4.30936,-5.056313 9.09446,-9.437973 14.625,-13.125 -1.15173,-2.468 -2.04784,-4.047836 -4,-6 -5.68088,-0.655486 -8.73095,0.194973 -13,4 z m -79.125,27 c -0.91008,0.37125 -1.82015,0.7425 -2.75781,1.125 -1.04801,0.43313 -1.04801,0.43313 -2.11719,0.875 1.28001,3.70561 2.69185,6.08169 5.5,8.8125 0.60844,0.60457 1.21688,1.20914 1.84375,1.83203 1.55751,1.56658 1.55751,1.56658 3.65625,1.35547 0.33,-5.28 0.66,-10.56 1,-16 -2.70183,0 -4.6299,0.97637 -7.125,2 z m -86.875,4 c 1,2 1,2 1,2 z m -1,2 c 1,2 1,2 1,2 z m 77,0 c -4.63308,6.17744 -5.78661,11.39156 -5,19 1.71192,3.76399 1.71192,3.76399 5,6 3.22083,0.37163 5.82342,0.667 8.72266,-0.97656 2.82578,-2.26341 5.25529,-4.50305 6.27734,-8.02344 -0.44433,-3.73854 -1.93629,-5.12693 -4.8125,-7.4375 -3.16522,-2.6273 -5.63754,-5.32602 -8.1875,-8.5625 -0.66,0 -1.32,0 -2,0 z m -78,2 c 1,2 1,2 1,2 z m -1,2 c 1,2 1,2 1,2 z"
     fill="#f8f9fa"
     id="path1" />
  <path
     d="m 89.220093,34 c 7.818525,0.460735 14.207967,2.681249 19.999997,8 5.14219,6.267727 8.18157,12.21856 8.41406,20.394531 0.0387,1.202051 0.0773,2.404102 0.11719,3.642578 0.0309,1.245879 0.0619,2.491758 0.0937,3.775391 0.0387,1.265215 0.0773,2.53043 0.11719,3.833984 0.0941,3.117695 0.17976,6.235385 0.25781,9.353516 0.24597,-0.533269 0.49194,-1.066538 0.74536,-1.615967 3.49163,-7.315347 7.8603,-12.378808 15.62964,-15.321533 9.25484,-2.535573 17.01095,-1.069362 25.625,2.9375 5.38982,3.163591 8.6772,8.842119 10.55638,14.74884 0.56487,2.866459 0.56299,5.565904 0.55715,8.488465 -1.2e-4,1.891508 -1.2e-4,1.891508 -2.3e-4,3.821228 -0.005,1.371114 -0.0103,2.742228 -0.0156,4.113347 -0.002,1.40675 -0.003,2.81351 -0.004,4.22027 -0.004,3.69566 -0.0136,7.39127 -0.0247,11.08691 -0.0102,3.7739 -0.0148,7.54781 -0.0198,11.32172 -0.0107,7.39976 -0.0278,14.79948 -0.0488,22.19922 -1.41474,-0.12538 -2.82866,-0.26002 -4.24219,-0.39844 -0.78745,-0.074 -1.57491,-0.14792 -2.38623,-0.22412 -6.45172,-1.0268 -11.12404,-4.69109 -15.73095,-9.10791 -4.70733,-6.5118 -6.22848,-12.84626 -6.17969,-20.76562 -0.0118,-0.87359 -0.0236,-1.74718 -0.0357,-2.64724 -0.035,-2.76491 -0.0444,-5.52906 -0.0502,-8.29417 -0.0165,-2.76131 -0.0387,-5.5223 -0.0716,-8.283463 -0.0193,-1.708522 -0.029,-3.417193 -0.0269,-5.125824 C 142.44598,88.404568 142.14572,82.46094 140.22009,77 c -3.72579,-2.483861 -5.58711,-2.380421 -10,-2 -3.83695,1.427701 -4.92599,2.882455 -7.125,6.375 -6.12285,13.859081 -5.4173,28.59338 -5.5625,43.4375 -0.0332,2.34963 -0.0677,4.69924 -0.10351,7.04883 -0.0843,5.71277 -0.1529,11.42556 -0.20899,17.13867 -1.60559,-0.13798 -3.21064,-0.28235 -4.81543,-0.42944 -0.89386,-0.0797 -1.78773,-0.15943 -2.70868,-0.24157 -6.62668,-0.88054 -11.962227,-5.24777 -15.975887,-10.39149 -5.05269,-7.50075 -5.651723,-14.85972 -5.629395,-23.68091 -0.0018,-0.85758 -0.0035,-1.71517 -0.0053,-2.59874 -0.0044,-2.81956 -0.0015,-5.63907 0.0019,-8.45863 -6.74e-4,-1.96201 -0.0016,-3.924023 -0.0029,-5.886033 -0.0015,-4.102858 6.63e-4,-8.205693 0.0053,-12.308548 0.0057,-5.270703 0.0024,-10.541354 -0.0036,-15.812055 -0.0036,-4.046444 -0.0025,-8.092877 1.28e-4,-12.139321 6.69e-4,-1.944561 -1.58e-4,-3.889124 -0.0025,-5.833683 -0.0025,-2.707745 0.0013,-5.415406 0.0069,-8.123144 -0.002,-0.809844 -0.004,-1.619687 -0.0061,-2.454072 0.02126,-5.528098 0.02126,-5.528098 1.135527,-6.642364 z"
     fill="#f6f7f9"
     id="path2" />
  <path
     d="m 67.681033,32.53125 c 4.685997,1.651769 8.984852,3.956839 11.648438,8.261719 1.717313,4.255623 1.400602,8.708769 0.890625,13.207031 -2.467412,5.551676 -6.679598,8.387133 -12.000001,11 -1.989753,0.696652 -3.98829,1.36955 -6,2 0.808242,0.363516 1.616485,0.727031 2.449219,1.101562 7.534338,3.544502 12.328198,6.029923 15.863282,13.773438 1.902369,8.647135 0.308586,14.947644 -4.312501,22.3125 -5.874174,6.47394 -15.637292,8.75942 -24,9.8125 -5.245764,0.133 -10.482738,-0.0909 -15.722656,-0.3418 -8.873444,-0.21231 -14.926227,1.91797 -21.898437,7.4043 -5.2891352,5.64174 -9.0900202,9.84869 -9.3789062,17.9375 1.345623,2.94756 2.085545,4.54277 5.0000002,6 9.077942,1.18408 17.12698,-4.0072 24.943359,-8.06274 9.520189,-4.91719 20.159685,-10.34615 31.05664,-6.93726 8.268817,3.64986 13.366526,8.73305 17.375001,16.75 1.596018,8.29929 1.165674,15.57854 -2.375,23.25 -0.99,-0.33 -1.98,-0.66 -3,-1 0.0232,-0.60328 0.04641,-1.20656 0.07031,-1.82813 0.01805,-0.79921 0.03609,-1.59843 0.05469,-2.42187 0.0232,-0.78891 0.04641,-1.57781 0.07031,-2.39063 -0.217888,-2.63208 -0.74714,-4.15834 -2.195313,-6.35937 -5.399596,-2.58731 -8.630331,-1.80289 -14.186523,-0.0359 -4.987158,1.83621 -9.693603,4.21656 -14.438476,6.59839 -10.348072,5.19435 -20.346139,9.92922 -32,6.3125 -8.3088822,-4.61605 -12.3877712,-9.91331 -15.37500023,-18.875 -1.045999,-10.30565 1.63895903,-18.82152 8.00000003,-27 4.1965642,-4.77359 8.3394692,-8.11197 14.0000002,-11 -0.652266,-0.27973 -1.304532,-0.55945 -1.976563,-0.84766 -7.324216,-3.35963 -12.9769442,-7.4465 -16.0234372,-15.15234 -0.656883,-6.602946 -1.15284,-13.507535 3,-19 C 17.151867,66.368416 30.24417,65.095836 44.032594,64.56249 c 16.261012,-0.34767 16.261012,-0.34767 30.187499,-7.5625 2.393671,-3.397468 3.254314,-5.970364 3,-10.0625 -0.744385,-4.23167 -2.584323,-6.298113 -6,-8.9375 -4.373949,-2.222696 -8.505699,-2.41881 -13.3125,-2.625 -1.110849,-0.05801 -1.110849,-0.05801 -2.24414,-0.117187 -1.814073,-0.09363 -3.628681,-0.176781 -5.443359,-0.257813 0,-0.66 0,-1.32 0,-2 4.866197,-2.433088 12.259411,-1.59161 17.460939,-0.46874 z M 35.220096,70 c -1.292748,1.752944 -1.292748,1.752944 -2.1875,3.8125 -0.323555,0.666445 -0.64711,1.332891 -0.980469,2.019531 -3.380563,8.808508 -2.774913,19.328502 0.242187,28.136719 1.571275,3.44752 3.585533,5.36113 6.925782,7.03125 4.226624,0.47849 6.259248,0.53873 9.75,-2 4.672415,-6.22989 5.787771,-12.354845 5.687499,-19.9375 -0.0061,-0.788342 -0.01225,-1.576685 -0.01855,-2.388916 C 54.450021,79.642613 53.119544,74.299367 48.4076,68.9375 43.835556,66.978053 39.373371,67.360854 35.2201,70 Z"
     fill="#f2f4f5"
     id="path3" />
  <path
     d="m 245.49743,72.04688 c 9.76947,10.24646 9.88013,21.144222 9.82032,34.66797 -10e-4,1.21088 -0.003,2.42175 -0.004,3.66933 -0.006,3.85113 -0.0181,7.70221 -0.0309,11.55333 -0.005,2.61783 -0.01,5.23567 -0.0137,7.85351 -0.011,6.40301 -0.0277,12.806 -0.0488,19.20898 -1.60558,-0.13892 -3.21063,-0.28398 -4.81543,-0.43164 -0.89386,-0.0801 -1.78773,-0.16024 -2.70868,-0.24279 -5.83642,-0.76745 -10.60699,-4.12845 -14.36652,-8.54822 -2.59235,-3.76899 -4.48568,-7.50013 -6.10937,-11.77735 -1.10819,1.66228 -2.2011,3.33624 -3.22656,5.05079 -4.74213,7.66952 -10.42125,12.93472 -19.21875,15.47656 -7.48242,1.38436 -15.1901,1.72733 -21.90235,-2.2461 -3.28609,-2.54808 -5.78343,-5.54343 -7.65234,-9.28125 -0.50577,-6.49721 -0.89661,-12.49099 3,-17.99999 10.80712,-12.30812 26.35911,-15.90889 42,-18 1.99954,-0.0428 4.00086,-0.0586 6,0 -0.0877,-3.001284 -0.19472,-5.999875 -0.3125,-9.000005 -0.0338,-1.25877 -0.0338,-1.25877 -0.0684,-2.542969 -0.28717,-6.735334 -1.09175,-12.929638 -6.05664,-17.894531 -5.45331,-3.325186 -11.18025,-3.358889 -17.31641,-1.914062 -7.44896,2.371506 -11.79124,5.624928 -15.39844,12.570312 -0.27972,0.587813 -0.55945,1.175625 -0.84765,1.78125 -0.99,0 -1.98,0 -3,0 0.85328,-5.931882 3.57269,-9.09939 8,-13 15.28724,-10.289491 39.9019,-11.873767 54.27734,1.046875 z m -36.91015,39.39063 c -3.88706,4.44235 -5.58146,9.70968 -5.36719,15.5625 0.96872,3.56125 2.36223,6.36223 5,8.99999 3.60733,0.34032 6.2792,0.26821 9.6875,-1 5.43753,-4.70273 7.4924,-12.03966 8.3125,-18.99999 0.14694,-4.33959 0.12074,-8.66013 0,-13 -6.23037,0 -13.27947,4.27162 -17.63281,8.4375 z"
     fill="#f4f6f7"
     id="path4" />
  <path
     d="m 318.22009,65 c 0,0.99 0,1.98 0,3 -0.9784,0.255234 -0.9784,0.255234 -1.97656,0.515625 -7.61895,2.11263 -13.55734,4.636353 -18.02344,11.484375 -7.25884,14.491 -6.39825,30.46028 -6.625,46.25 -0.0383,2.20965 -0.0773,4.41928 -0.11718,6.62891 -0.0953,5.37357 -0.18051,10.74723 -0.25782,16.12109 -1.44428,0.0189 -2.88864,0.0325 -4.33301,0.0437 -1.20647,0.0122 -1.20647,0.0122 -2.43731,0.0246 -5.49109,-0.16816 -9.94839,-2.98631 -14.04218,-6.44328 -8.23196,-9.87836 -8.48859,-18.66713 -8.38281,-31.19141 0.003,-1.27463 0.006,-2.54927 0.009,-3.86253 0.009,-3.35867 0.0272,-6.71705 0.0494,-10.075641 0.0206,-3.439204 0.0296,-6.878439 0.0397,-10.317688 0.022,-6.725985 0.0554,-13.451842 0.0976,-20.177731 1.56879,-0.0409 3.1379,-0.06977 4.70703,-0.09375 0.87375,-0.0174 1.74749,-0.03481 2.64771,-0.05273 6.46204,0.357842 11.19679,3.291081 15.52026,7.958984 2.85418,3.529647 4.61407,6.921337 6.125,11.1875 0.25653,-0.629063 0.51305,-1.258125 0.77735,-1.90625 3.44918,-7.711307 7.96506,-13.833973 15.92187,-17.253906 C 311.45936,65.728733 314.50127,65 318.22009,65 Z"
     fill="#f4f6f7"
     id="path7"
     inkscape:label="path5" />
</svg>
