<?xml version="1.0" encoding="UTF-8" standalone="no"?>
<svg
   version="1.1"
   width="87.143105"
   height="24.617743"
   id="svg29"
   sodipodi:docname="Logo.svg"
   inkscape:version="1.4 (86a8ad7, 2024-10-11)"
   xmlns:inkscape="http://www.inkscape.org/namespaces/inkscape"
   xmlns:sodipodi="http://sodipodi.sourceforge.net/DTD/sodipodi-0.dtd"
   xmlns="http://www.w3.org/2000/svg"
   xmlns:svg="http://www.w3.org/2000/svg">
  <defs
     id="defs29" />
  <sodipodi:namedview
     id="namedview29"
     pagecolor="#ffffff"
     bordercolor="#000000"
     borderopacity="0.25"
     inkscape:showpageshadow="2"
     inkscape:pageopacity="0.0"
     inkscape:pagecheckerboard="0"
     inkscape:deskcolor="#d1d1d1"
     inkscape:zoom="4.8193512"
     inkscape:cx="43.989324"
     inkscape:cy="13.798538"
     inkscape:window-width="1920"
     inkscape:window-height="991"
     inkscape:window-x="-9"
     inkscape:window-y="-9"
     inkscape:window-maximized="1"
     inkscape:current-layer="svg29">
    <inkscape:page
       x="0"
       y="0"
       width="87.143105"
       height="24.617743"
       id="page2"
       margin="0"
       bleed="0" />
  </sodipodi:namedview>
  <path
     d="M 55,0.33227001 C 58.443128,2.456752 59.716176,3.480796 61,7.33227 c -1.32,0 -2.64,0 -4,0 -0.66,-0.99 -1.32,-1.98 -2,-3 C 52.79275,3.968642 52.79275,3.968642 50.375,4.14477 49.557735,4.17184 48.740469,4.19891 47.898438,4.2268 46.958711,4.27901 46.958711,4.27901 46,4.332269 c -1.601574,4.804721 -1.936655,9.866508 0.125,14.5625 2.706094,2.074672 4.553464,1.852692 7.875,1.4375 3.124747,-1.634735 3.124747,-1.634735 3.6875,-4.125 0.103125,-0.61875 0.20625,-1.2375 0.3125,-1.875 -2.31,0 -4.62,0 -7,0 0,-0.99 0,-1.98 0,-3 3.3,0 6.6,0 10,0 0,3.96 0,7.92 0,12 -0.66,0 -1.32,0 -2,0 0,-0.66 0,-1.32 0,-2 -1.051875,0.7425 -1.051875,0.7425 -2.125,1.5 -3.410165,1.779217 -5.080536,2.119504 -8.875,1.5 -2.921527,-1.834447 -5.432661,-3.865322 -7,-7 -0.528021,-4.81278 -0.856409,-9.389232 1.875,-13.5625 C 46.351923,-0.21846599 49.906294,-0.38982799 55,0.33227001 Z"
     fill="#f1f1f1"
     id="path4"
     style="fill:#f9f9f9" />
  <path
     d="M 30,0.33227001 C 35.389253,2.36595 35.389253,2.36595 37.140625,5.136957 38.706657,9.137455 38.669771,13.121333 38,17.33227 c -1.682879,3.121772 -3.78274,5.39137 -7,7 -4.194915,0.403357 -6.525,0.241981 -10.3125,-1.6875 -3.918848,-3.372032 -4.510977,-5.694371 -5.0625,-10.75 C 16.072841,7.640279 17.320773,5.623891 20,2.33227 23.741839,-0.16228899 25.562431,-0.04379499 30,0.33227001 Z M 21.5625,4.70727 c -2.427586,4.078345 -2.314818,8.003617 -1.5625,12.625 1.420446,2.756093 1.420446,2.756093 4,4 3,0.666667 3,0.666667 6,0 2.302756,-1.867099 3.678239,-3.356477 5,-6 0.378092,-4.007773 0.344073,-6.353143 -1.5625,-9.9375 C 31.074403,3.035078 31.074403,3.035078 27.5,2.76977 24.054071,3.116 24.054071,3.116 21.5625,4.70727 Z"
     fill="#eeeeee"
     id="path5"
     style="fill:#f9f9f9" />
  <path
     d="m 79.999997,0.33227001 c 3.02508,1.73602099 5.4179,3.83580099 7,6.99999999 0.37169,5.575349 0.22543,9.21747 -3,14 -2.37303,2.163645 -3.96649,2.955628 -7.18359,3.09375 -3.80696,-0.250047 -6.19058,-0.640029 -9.31641,-2.90625 -2.89797,-4.226218 -3.39114,-9.140889 -2.5,-14.1875 3.5402,-6.142503 8.02686,-8.19022199 15,-6.99999999 z m -10.5,5.06249999 c -1.86986,3.661819 -2.00848,5.869646 -1.5,9.9375 1.1564,2.312796 2.1741,4.174098 4,6 5.0754,0.519878 5.0754,0.519878 9.375,-1.875 2.90294,-3.796142 3.0302,-6.343708 2.625,-11.125 -1.32161,-3.068739 -1.32161,-3.068739 -4,-5 -4.29343,-1.082155 -7.06865,-0.768365 -10.5,2.0625 z"
     fill="#eeeeee"
     id="path6"
     style="fill:#f9f9f9" />
  <path
     d="m 0,1.33227 c 0.99,0 1.98,0 3,0 0,6.27 0,12.54 0,19 3.63,0 7.26,0 11,0 0,0.99 0,1.98 0,3 -4.62,0 -9.24,0 -14,0 0,-7.26 0,-14.52 0,-22 z"
     fill="#f4f4f4"
     id="path7"
     style="fill:#f9f9f9" />
</svg>
